<?xml version="1.0" standalone="no"?>
<!DOCTYPE svg PUBLIC "-//W3C//DTD SVG 20010904//EN"
 "http://www.w3.org/TR/2001/REC-SVG-20010904/DTD/svg10.dtd">
<svg version="1.0" xmlns="http://www.w3.org/2000/svg"
 width="512.000000pt" height="512.000000pt" viewBox="0 0 512.000000 512.000000"
 preserveAspectRatio="xMidYMid meet">

<g transform="translate(0.000000,512.000000) scale(0.100000,-0.100000)"
fill="#000000" stroke="none">
<path d="M1161 5110 c-372 -52 -705 -246 -917 -535 -238 -323 -296 -690 -194
-1207 163 -819 798 -1682 1775 -2413 177 -133 378 -268 438 -295 38 -18 117
-27 129 -15 2 3 -25 65 -62 137 -72 145 -127 300 -159 448 -35 167 -43 326
-39 835 l3 480 27 78 c49 145 151 269 277 335 53 29 1181 417 1283 443 28 6
89 10 145 7 93 -4 113 -9 412 -111 173 -59 318 -104 322 -100 9 10 44 164 64
283 25 147 31 444 11 557 -70 402 -320 740 -686 927 -224 115 -373 150 -635
150 -257 0 -390 -31 -620 -145 -128 -63 -221 -127 -325 -225 l-65 -62 -78 74
c-174 167 -416 290 -669 339 -98 19 -346 28 -437 15z"/>
<path d="M3665 2936 c-665 -224 -1020 -348 -1045 -366 -61 -43 -62 -51 -57
-636 3 -489 5 -536 24 -619 81 -357 283 -665 617 -943 194 -161 553 -372 634
-372 48 0 197 71 350 166 503 314 808 705 909 1164 13 63 17 161 20 608 4 526
4 534 -17 577 -11 24 -32 51 -46 60 -29 19 -1143 400 -1195 409 -25 5 -75 -8
-194 -48z m827 -842 c88 -61 118 -178 70 -269 -12 -22 -160 -215 -329 -429
-238 -301 -317 -394 -347 -409 -57 -30 -124 -33 -177 -10 -54 24 -457 369
-483 413 -10 17 -20 57 -23 88 -4 49 -1 65 24 112 39 74 100 113 181 114 70 0
107 -17 192 -90 36 -31 86 -73 111 -95 l46 -38 226 287 c124 158 236 297 249
309 66 62 185 70 260 17z"/>
</g>
</svg>
